# xmcd
#
# Track frame offsets: 
#        183
#        19873
#        38968
#        61213
#
# Disc length: 1091 seconds
#
# Revision: 0
# Processed by: cddbd v1.5.2PL0 Copyright (c) Steve Scherf et al.
# Submitted via: ExactAudioCopy v0.99pb5
#
DISCID=2c044104
DTITLE=Charles and Eddie - Would I Lie To You? [Single]
DYEAR=1992
DGENRE=Soul
TTITLE0=Would I Lie To You?
TTITLE1=Would I Lie To You? (Stateside Mix)
TTITLE2=Would I Lie To You? (Naked Truth Mix/Acappella)
TTITLE3=Unconditional
EXTD=
EXTT0=
EXTT1=
EXTT2=
EXTT3=
PLAYORDER=
